<svg xmlns="http://www.w3.org/2000/svg" viewBox="0 0 1000 1200" preserveAspectRatio="xMidYMax slice" role="img" aria-labelledby="heroTitle">
  <title id="heroTitle">Placeholder: hilltop Istrian town at golden hour — replace with real photography</title>
  <defs>
    <linearGradient id="sky" x1="0" y1="0" x2="0" y2="1">
      <stop offset="0%" stop-color="#E7CE9A"/>
      <stop offset="55%" stop-color="#DDBB84"/>
      <stop offset="100%" stop-color="#C98C55"/>
    </linearGradient>
    <linearGradient id="hillFar" x1="0" y1="0" x2="0" y2="1">
      <stop offset="0%" stop-color="#8A9468"/>
      <stop offset="100%" stop-color="#6E7A50"/>
    </linearGradient>
    <linearGradient id="hillNear" x1="0" y1="0" x2="0" y2="1">
      <stop offset="0%" stop-color="#4C5A34"/>
      <stop offset="100%" stop-color="#3A4626"/>
    </linearGradient>
  </defs>
  <rect width="1000" height="1200" fill="url(#sky)"/>
  <circle cx="760" cy="260" r="120" fill="#F1DDAE" opacity="0.55"/>
  <path d="M0,560 C120,500 220,540 340,500 C460,460 520,520 640,480 C760,440 840,500 1000,470 L1000,1200 L0,1200 Z" fill="url(#hillFar)"/>
  <path d="M0,700 C90,650 180,690 280,660 C400,630 470,560 560,600 C610,540 660,560 700,610 C760,580 800,600 860,640 C920,610 970,630 1000,650 L1000,1200 L0,1200 Z" fill="url(#hillNear)"/>
  <g fill="#2D3620">
    <rect x="520" y="560" width="26" height="60"/>
    <polygon points="500,560 546,560 523,520"/>
    <rect x="560" y="580" width="34" height="40"/>
    <polygon points="556,580 598,580 577,548"/>
    <rect x="480" y="590" width="22" height="30"/>
    <rect x="605" y="600" width="20" height="20"/>
    <rect x="630" y="596" width="18" height="24"/>
  </g>
  <rect x="0" y="1000" width="1000" height="200" fill="#3A4626" opacity="0.0"/>
</svg>
